<?xml version="1.0" standalone="no"?>
<!DOCTYPE svg PUBLIC "-//W3C//DTD SVG 20010904//EN"
 "http://www.w3.org/TR/2001/REC-SVG-20010904/DTD/svg10.dtd">
<svg version="1.0" xmlns="http://www.w3.org/2000/svg"
 width="70.000000pt" height="70.000000pt" viewBox="0 0 70.000000 70.000000"
 preserveAspectRatio="xMidYMid meet">
<metadata>
Created by potrace 1.14, written by Peter Selinger 2001-2017
</metadata>
<g transform="translate(0.000000,70.000000) scale(0.100000,-0.100000)"
fill="#000000" stroke="none">
<path d="M259 666 c-11 -8 -13 -20 -8 -43 5 -27 3 -32 -17 -37 -29 -8 -31 -32
-3 -41 16 -5 19 -12 14 -35 -4 -20 -2 -31 9 -37 19 -10 10 -53 -10 -53 -18 0
-12 -53 12 -103 10 -20 15 -39 13 -42 -3 -2 -22 -6 -42 -7 -20 -2 -39 -8 -41
-15 -7 -18 10 -25 23 -9 21 25 94 -7 107 -47 18 -53 20 -130 4 -171 l-10 -26
65 0 c48 0 65 4 65 13 0 8 -3 17 -7 21 -10 10 -15 36 -15 82 -1 29 6 48 21 63
11 11 24 21 27 21 15 0 120 55 130 68 9 13 11 12 11 -2 0 -9 -3 -16 -7 -16 -3
0 -6 -13 -6 -30 0 -16 3 -30 8 -30 4 0 11 0 16 0 4 0 7 6 7 13 0 6 14 14 30
17 34 6 39 25 13 44 -17 12 -17 14 2 31 11 10 17 22 12 27 -12 12 -80 -13
-109 -39 -14 -14 -32 -22 -39 -19 -23 9 -16 26 11 26 16 0 25 6 25 16 0 8 -4
12 -10 9 -5 -3 -3 10 5 29 17 40 8 52 -24 30 -14 -10 -21 -24 -19 -37 3 -23
-2 -27 -27 -27 -20 0 -15 20 13 48 23 22 22 52 -1 34 -7 -6 -28 -19 -48 -30
l-36 -20 3 36 c1 21 7 52 13 70 9 29 8 32 -4 22 -12 -10 -16 -9 -22 6 -12 32
-52 62 -74 57 -21 -6 -23 -37 -1 -39 6 -1 18 -2 26 -3 15 -1 24 -29 30 -95 3
-33 2 -37 -14 -33 -26 7 -32 -18 -10 -38 19 -17 19 -24 2 -68 l-12 -28 -33 43
c-50 67 -74 106 -54 90 13 -11 17 -10 26 7 13 24 -3 39 -24 21 -10 -8 -15 -8
-20 0 -9 14 -3 20 25 25 28 5 43 19 46 41 2 12 -4 15 -22 11 -26 -5 -27 -3
-15 28 5 11 5 27 0 36 -5 10 -3 23 6 35 9 12 14 14 15 6 0 -32 80 16 80 49 0
10 -4 20 -8 23 -10 6 -43 -30 -35 -38 4 -3 2 -6 -4 -6 -6 0 -14 10 -17 23 -9
32 -48 58 -67 43z m226 -376 c-6 -9 13 -25 29 -25 12 0 21 -25 9 -26 -4 0 -27
-2 -49 -5 -25 -3 -45 -1 -48 5 -7 11 10 52 27 63 13 8 38 -2 32 -12z"/>
<path d="M448 611 c-9 -13 -15 -32 -13 -42 2 -11 -2 -19 -9 -19 -7 0 -13 -7
-13 -16 0 -11 7 -14 24 -11 25 5 29 -3 13 -19 -16 -16 34 -12 52 4 8 6 18 9
21 5 13 -12 7 -23 -12 -23 -26 0 -33 -23 -14 -49 l15 -22 17 20 c10 11 21 18
24 14 10 -10 26 43 20 66 -6 24 -14 26 -31 9 -8 -8 -15 -8 -26 2 -9 7 -23 10
-31 6 -17 -6 -20 5 -6 20 5 5 4 23 -3 43 l-12 35 -16 -23z"/>
<path d="M177 479 c-7 -27 25 -59 52 -52 18 5 19 8 9 21 -10 12 -10 14 0 8 6
-4 12 -3 12 1 0 8 -52 43 -63 43 -3 0 -7 -9 -10 -21z"/>
<path d="M562 448 c-18 -11 -31 -27 -31 -36 1 -13 2 -13 6 2 4 14 7 16 13 6
11 -18 56 -4 63 19 7 28 -15 32 -51 9z"/>
<path d="M153 407 c17 -26 44 -34 60 -18 16 16 -6 34 -44 37 -29 2 -30 1 -16
-19z"/>
<path d="M633 417 c-16 -7 -23 -19 -23 -39 0 -37 28 -35 50 4 18 34 5 50 -27
35z"/>
<path d="M135 320 c-4 -6 1 -23 11 -38 12 -18 13 -23 3 -16 -8 5 -20 9 -26 8
-7 -1 -17 -2 -23 -3 -5 0 -10 -10 -10 -21 0 -12 -6 -20 -12 -19 -24 3 -37 -1
-52 -17 -22 -21 -20 -31 7 -31 41 -1 47 -3 47 -17 0 -18 36 -13 60 9 20 18 40
20 40 4 0 -8 4 -8 15 1 11 9 12 17 4 31 -5 10 -13 18 -17 18 -19 -3 -23 2 -12
16 7 8 9 15 5 15 -4 0 -2 7 5 15 10 13 10 19 -5 35 -20 22 -31 25 -40 10z
m-23 -109 c-21 -22 -23 -21 -16 6 4 13 12 19 19 17 11 -4 10 -9 -3 -23z"/>
</g>
</svg>
